<?xml version="1.0" encoding="UTF-8" standalone="no"?>
<svg
   xmlns:dc="http://purl.org/dc/elements/1.1/"
   xmlns:cc="http://creativecommons.org/ns#"
   xmlns:rdf="http://www.w3.org/1999/02/22-rdf-syntax-ns#"
   xmlns:svg="http://www.w3.org/2000/svg"
   xmlns="http://www.w3.org/2000/svg"
   xmlns:xlink="http://www.w3.org/1999/xlink"
   xmlns:sodipodi="http://sodipodi.sourceforge.net/DTD/sodipodi-0.dtd"
   xmlns:inkscape="http://www.inkscape.org/namespaces/inkscape"
   version="1.1"
   id="Capa_1"
   x="0px"
   y="0px"
   viewBox="0 0 182.94742 182.03136"
   xml:space="preserve"
   inkscape:version="1.0.2-2 (e86c870879, 2021-01-15)"
   sodipodi:docname="icon_source.svg"
   width="182.94742"
   height="182.03136"><sodipodi:namedview
     pagecolor="#ffffff"
     bordercolor="#666666"
     borderopacity="1"
     objecttolerance="10"
     gridtolerance="10"
     guidetolerance="10"
     inkscape:pageopacity="0"
     inkscape:pageshadow="2"
     inkscape:window-width="1920"
     inkscape:window-height="1028"
     id="namedview42"
     showgrid="false"
     inkscape:zoom="2.6074563"
     inkscape:cx="67.550718"
     inkscape:cy="161.12628"
     inkscape:window-x="-1926"
     inkscape:window-y="-6"
     inkscape:window-maximized="1"
     inkscape:current-layer="Capa_1"
     fit-margin-top="10"
     fit-margin-left="10"
     fit-margin-right="10"
     fit-margin-bottom="10"
     inkscape:document-rotation="0" /><metadata
     id="metadata46"><rdf:RDF><cc:Work
         rdf:about=""><dc:format>image/svg+xml</dc:format><dc:type
           rdf:resource="http://purl.org/dc/dcmitype/StillImage" /><dc:title /></cc:Work></rdf:RDF></metadata><defs
     id="defs44"><linearGradient
       inkscape:collect="always"
       id="linearGradient4342"><stop
         style="stop-color:#66ff80;stop-opacity:1"
         offset="0"
         id="stop4344" /><stop
         style="stop-color:#02b21f;stop-opacity:1"
         offset="1"
         id="stop4346" /></linearGradient><linearGradient
       inkscape:collect="always"
       xlink:href="#linearGradient4342"
       id="linearGradient4348"
       x1="84.074409"
       y1="110.99352"
       x2="84.074409"
       y2="162.19284"
       gradientUnits="userSpaceOnUse"
       gradientTransform="translate(10,10)" /><linearGradient
       inkscape:collect="always"
       xlink:href="#linearGradient4342"
       id="linearGradient4352"
       gradientUnits="userSpaceOnUse"
       x1="84.074409"
       y1="110.99352"
       x2="84.074409"
       y2="162.19284"
       gradientTransform="translate(63.116898,9.9999998)" /><linearGradient
       inkscape:collect="always"
       xlink:href="#linearGradient4342"
       id="linearGradient943"
       gradientUnits="userSpaceOnUse"
       gradientTransform="translate(64.891092,-47.905206)"
       x1="84.074409"
       y1="110.99352"
       x2="84.074409"
       y2="162.19284" /></defs><rect
     y="66.126152"
     x="126.7216"
     height="48"
     width="48"
     id="rect4350-5"
     style="fill:url(#linearGradient943);fill-opacity:1;stroke:none;stroke-width:20;stroke-linecap:round;stroke-linejoin:round;stroke-miterlimit:4;stroke-dasharray:none;stroke-dashoffset:0;stroke-opacity:1"
     inkscape:export-filename="C:\GitDev\sacnview\res\univ_view.png"
     inkscape:export-xdpi="96"
     inkscape:export-ydpi="96" /><rect
     inkscape:export-ydpi="90"
     inkscape:export-xdpi="90"
     inkscape:export-filename="C:\GitDev\sacnview\res\transmit.png"
     y="10.542374"
     x="128.23058"
     height="48"
     width="48"
     id="rect4193"
     style="opacity:1;fill:#ff3b30;fill-opacity:1;stroke:none;stroke-width:20;stroke-linecap:round;stroke-linejoin:round;stroke-miterlimit:4;stroke-dasharray:none;stroke-dashoffset:0;stroke-opacity:1" /><rect
     style="opacity:1;fill:#ff3b30;fill-opacity:1;stroke:none;stroke-width:20;stroke-linecap:round;stroke-linejoin:round;stroke-miterlimit:4;stroke-dasharray:none;stroke-dashoffset:0;stroke-opacity:1"
     id="rect4205-1"
     width="48"
     height="48"
     x="72.644081"
     y="65.728821"
     inkscape:export-filename="C:\GitDev\sacnview\res\multi_universe.png"
     inkscape:export-xdpi="90"
     inkscape:export-ydpi="90" /><rect
     y="10"
     x="10.406799"
     height="48"
     width="48"
     id="rect4174"
     style="opacity:1;fill:#ff3b30;fill-opacity:1;stroke:none;stroke-width:20;stroke-linecap:round;stroke-linejoin:round;stroke-miterlimit:4;stroke-dasharray:none;stroke-dashoffset:0;stroke-opacity:1"
     inkscape:export-filename="C:\GitDev\sacnview\res\snapshot.png"
     inkscape:export-xdpi="90"
     inkscape:export-ydpi="90" /><path
     inkscape:connector-curvature="0"
     id="path6"
     d="m 34.813572,27.365407 c -4.419,0 -8,3.581 -8,8 0,4.418 3.581,8 8,8 4.418,0 8,-3.582 8,-8 0,-4.418 -3.582,-8 -8,-8 z m 4.555,11.905 c -2.156,2.516 -5.943,2.807 -8.459,0.65 -2.517,-2.156 -2.807,-5.944 -0.65,-8.459 2.155,-2.517 5.943,-2.807 8.459,-0.65 2.515,2.155 2.806,5.944 0.65,8.459 z"
     style="fill:#ffffff;fill-opacity:1"
     inkscape:export-filename="C:\GitDev\sacnview\res\snapshot.png"
     inkscape:export-xdpi="90"
     inkscape:export-ydpi="90" /><path
     inkscape:connector-curvature="0"
     id="path8"
     d="m 34.813572,31.365407 c -2.209,0 -3.999,1.791 -4,3.999 l 0,0.002 c 0,0.275 0.224,0.5 0.5,0.5 0.276,0 0.5,-0.225 0.5,-0.5 l 0,-0.002 c 10e-4,-1.656 1.343,-2.999 3,-2.999 0.276,0 0.5,-0.224 0.5,-0.5 0,-0.276 -0.224,-0.5 -0.5,-0.5 z"
     style="fill:#ffffff;fill-opacity:1"
     inkscape:export-filename="C:\GitDev\sacnview\res\snapshot.png"
     inkscape:export-xdpi="90"
     inkscape:export-ydpi="90" /><path
     inkscape:connector-curvature="0"
     id="path10"
     d="m 48.305572,26.406407 -4.334,-0.723 -1.373,-3.434 c -0.459,-1.145 -1.553,-1.885 -2.785,-1.885 l -10,0 c -1.232,0 -2.326,0.74 -2.786,1.886 l -1.372,3.433 -4.333,0.723 c -1.454,0.241 -2.509,1.485 -2.509,2.958 l 0,15 c 0,1.654 1.346,3 3,3 l 26,0 c 1.654,0 3,-1.346 3,-3 l 0,-15 c 0,-1.473 -1.055,-2.717 -2.508,-2.958 z m 0.508,17.958 c 0,0.553 -0.447,1 -1,1 l -26,0 c -0.553,0 -1,-0.447 -1,-1 l 0,-15 c 0,-0.489 0.354,-0.906 0.836,-0.986 l 5.444,-0.907 1.791,-4.478 c 0.153,-0.379 0.52,-0.629 0.929,-0.629 l 10,0 c 0.408,0 0.775,0.249 0.928,0.629 l 1.791,4.478 5.445,0.907 c 0.482,0.08 0.836,0.497 0.836,0.986 l 0,15 z"
     style="fill:#ffffff;fill-opacity:1"
     inkscape:export-filename="C:\GitDev\sacnview\res\snapshot.png"
     inkscape:export-xdpi="90"
     inkscape:export-ydpi="90" /><g
     transform="translate(18.813572,17.864407)"
     id="g12" /><g
     transform="translate(18.813572,17.864407)"
     id="g14" /><g
     transform="translate(18.813572,17.864407)"
     id="g16" /><g
     transform="translate(18.813572,17.864407)"
     id="g18" /><g
     transform="translate(18.813572,17.864407)"
     id="g20" /><g
     transform="translate(18.813572,17.864407)"
     id="g22" /><g
     transform="translate(18.813572,17.864407)"
     id="g24" /><g
     transform="translate(18.813572,17.864407)"
     id="g26" /><g
     transform="translate(18.813572,17.864407)"
     id="g28" /><g
     transform="translate(18.813572,17.864407)"
     id="g30" /><g
     transform="translate(18.813572,17.864407)"
     id="g32" /><g
     transform="translate(18.813572,17.864407)"
     id="g34" /><g
     transform="translate(18.813572,17.864407)"
     id="g36" /><g
     transform="translate(18.813572,17.864407)"
     id="g38" /><g
     transform="translate(18.813572,17.864407)"
     id="g40" /><rect
     style="opacity:1;fill:#ff3b30;fill-opacity:1;stroke:none;stroke-width:20;stroke-linecap:round;stroke-linejoin:round;stroke-miterlimit:4;stroke-dasharray:none;stroke-dashoffset:0;stroke-opacity:1"
     id="rect4205"
     width="48"
     height="48"
     x="72.237305"
     y="10.542374"
     inkscape:export-filename="C:\GitDev\sacnview\res\transmit.png"
     inkscape:export-xdpi="90"
     inkscape:export-ydpi="90" /><path
     id="path5"
     d="m 94.486572,20.898465 c 7.294018,-0.525307 14.756898,2.203703 19.962688,7.343581 0.68212,0.702195 0.59317,1.930548 -0.12647,2.574064 -0.66094,0.779161 -1.98455,0.792935 -2.66667,0.03393 -4.45331,-4.287331 -10.74093,-6.60567 -16.914758,-6.14457 -5.1289,0.329968 -10.09741,2.539199 -13.81913,6.077641 -0.33098,0.338296 -0.75363,0.616045 -1.24034,0.639859 -1.21917,0.14296 -2.34666,-1.131231 -2.08354,-2.323786 0.0743,-0.428103 0.34919,-0.784687 0.66359,-1.069829 4.35714,-4.171841 10.20652,-6.733999 16.22463,-7.130891 z"
     style="fill:#ffffff;fill-opacity:1"
     inkscape:connector-curvature="0"
     inkscape:export-filename="C:\GitDev\sacnview\res\transmit.png"
     inkscape:export-xdpi="90"
     inkscape:export-ydpi="90" /><path
     id="path7"
     d="m 94.303143,28.05138 c 5.588137,-0.607795 11.390837,1.452017 15.345317,5.445099 0.61784,0.705852 0.54086,1.86004 -0.14568,2.494373 -0.62617,0.76632 -1.88838,0.852392 -2.59797,0.157513 -2.53188,-2.496086 -5.95483,-4.081021 -9.50417,-4.340483 -4.310358,-0.357517 -8.714108,1.277848 -11.783208,4.314879 -0.70772,0.748032 -2.02595,0.662894 -2.66294,-0.132921 -0.68662,-0.64803 -0.74344,-1.833425 -0.0844,-2.519977 3.04163,-3.043333 7.15478,-4.979407 11.433006,-5.418483 z"
     style="fill:#ffffff;fill-opacity:1"
     inkscape:connector-curvature="0"
     inkscape:export-filename="C:\GitDev\sacnview\res\transmit.png"
     inkscape:export-xdpi="90"
     inkscape:export-ydpi="90" /><path
     id="path9"
     d="m 95.133785,35.108965 c 3.526445,-0.350124 7.172205,1.000177 9.626105,3.554084 0.67193,0.699393 0.59411,1.903077 -0.11363,2.550251 -0.64259,0.775582 -1.93055,0.827877 -2.629,0.100859 -1.38329,-1.419876 -3.29928,-2.317405 -5.28299,-2.425579 -2.251324,-0.160471 -4.529348,0.72881 -6.128058,2.310945 -0.39324,0.441955 -0.97722,0.713245 -1.5749,0.642738 -1.38781,-0.09728 -2.35125,-1.949926 -1.3952,-3.061857 1.93054,-2.093741 4.6724,-3.39089 7.497673,-3.671441 z"
     style="fill:#ffffff;fill-opacity:1"
     inkscape:connector-curvature="0"
     inkscape:export-filename="C:\GitDev\sacnview\res\transmit.png"
     inkscape:export-xdpi="90"
     inkscape:export-ydpi="90" /><path
     id="path11"
     d="m 95.6732,41.699069 c 2.27249,-0.381331 4.57884,1.495206 4.65224,3.799616 0.21082,2.259659 -1.78393,4.403908 -4.05168,4.354256 -2.038733,0.07067 -3.928108,-1.620658 -4.106868,-3.648328 -0.29067,-2.128605 1.374033,-4.259858 3.506308,-4.505544 z"
     style="fill:#ffffff;fill-opacity:1"
     inkscape:connector-curvature="0"
     inkscape:export-filename="C:\GitDev\sacnview\res\transmit.png"
     inkscape:export-xdpi="90"
     inkscape:export-ydpi="90" /><rect
     rx="3"
     ry="3"
     y="75.03038"
     x="88.521935"
     height="9"
     width="18"
     id="rect4207"
     style="opacity:1;fill:none;fill-opacity:1;stroke:#ffffff;stroke-width:1.89999998;stroke-linecap:round;stroke-linejoin:round;stroke-miterlimit:4;stroke-dasharray:none;stroke-dashoffset:0;stroke-opacity:1"
     inkscape:export-filename="C:\GitDev\sacnview\res\multi_universe.png"
     inkscape:export-xdpi="90"
     inkscape:export-ydpi="90" /><rect
     rx="3"
     style="opacity:1;fill:none;fill-opacity:1;stroke:#ffffff;stroke-width:1.89999998;stroke-linecap:round;stroke-linejoin:round;stroke-miterlimit:4;stroke-dasharray:none;stroke-dashoffset:0;stroke-opacity:1"
     id="rect4224"
     width="18"
     height="9"
     x="76.860909"
     y="92.521912"
     ry="3"
     inkscape:export-filename="C:\GitDev\sacnview\res\multi_universe.png"
     inkscape:export-xdpi="90"
     inkscape:export-ydpi="90" /><rect
     rx="3"
     ry="3"
     y="92.521912"
     x="99.979553"
     height="9"
     width="18"
     id="rect4226"
     style="opacity:1;fill:none;fill-opacity:1;stroke:#ffffff;stroke-width:1.89999998;stroke-linecap:round;stroke-linejoin:round;stroke-miterlimit:4;stroke-dasharray:none;stroke-dashoffset:0;stroke-opacity:1"
     inkscape:export-filename="C:\GitDev\sacnview\res\multi_universe.png"
     inkscape:export-xdpi="90"
     inkscape:export-ydpi="90" /><path
     inkscape:connector-curvature="0"
     id="path4228"
     d="m 85.521922,92.305085 0,-4 24.000008,0 0,4.271186"
     style="fill:none;fill-rule:evenodd;stroke:#ffffff;stroke-width:1.60000002;stroke-linecap:butt;stroke-linejoin:miter;stroke-miterlimit:4;stroke-dasharray:none;stroke-opacity:1"
     inkscape:export-filename="C:\GitDev\sacnview\res\multi_universe.png"
     inkscape:export-xdpi="90"
     inkscape:export-ydpi="90" /><path
     inkscape:connector-curvature="0"
     id="path4230"
     d="m 97.521925,84.169492 0,4.135593"
     style="fill:none;fill-rule:evenodd;stroke:#ffffff;stroke-width:1.60000002;stroke-linecap:butt;stroke-linejoin:miter;stroke-miterlimit:4;stroke-dasharray:none;stroke-opacity:1"
     inkscape:export-filename="C:\GitDev\sacnview\res\multi_universe.png"
     inkscape:export-xdpi="90"
     inkscape:export-ydpi="90" /><rect
     style="opacity:1;fill:#2042a6;fill-opacity:1;stroke:none;stroke-width:20;stroke-linecap:round;stroke-linejoin:round;stroke-miterlimit:4;stroke-dasharray:none;stroke-dashoffset:0;stroke-opacity:1"
     id="rect4243"
     width="48"
     height="48"
     x="11.084824"
     y="67.62616"
     inkscape:export-filename="C:\GitDev\sacnview\res\info.png"
     inkscape:export-xdpi="90"
     inkscape:export-ydpi="90" /><path
     style="fill:#ffffff;fill-opacity:1"
     inkscape:connector-curvature="0"
     id="info-2-icon"
     d="m 35.084642,76.411114 c 8.40863,0 15.21529,6.804732 15.21529,15.214936 0,8.40874 -6.8051,15.21512 -15.21529,15.21512 -8.40866,0 -15.21494,-6.80491 -15.21494,-15.21512 0,-8.408635 6.80492,-15.214936 15.21494,-15.214936 m 0,-3.666275 c -10.42778,0 -18.88124,8.453353 -18.88124,18.881211 0,10.42796 8.45346,18.88142 18.88124,18.88142 10.42794,0 18.88159,-8.45346 18.88159,-18.88142 0,-10.427858 -8.45356,-18.881211 -18.88159,-18.881211 l 0,0 z m 2.73357,29.107241 -5.28367,0 0,-12.55404 5.28367,0 0,12.55404 z m -2.64173,-15.15087 c -1.60602,0 -2.9082,-1.302074 -2.9082,-2.908279 0,-1.606022 1.30207,-2.908203 2.9082,-2.908203 1.60621,0 2.9081,1.302077 2.9081,2.908203 0,1.606205 -1.30189,2.908279 -2.9081,2.908279 z"
     inkscape:export-filename="C:\GitDev\sacnview\res\info.png"
     inkscape:export-xdpi="90"
     inkscape:export-ydpi="90" /><rect
     y="124.03136"
     x="10"
     height="48"
     width="48"
     id="rect4255"
     style="opacity:1;fill:#2042a6;fill-opacity:1;stroke:none;stroke-width:20;stroke-linecap:round;stroke-linejoin:round;stroke-miterlimit:4;stroke-dasharray:none;stroke-dashoffset:0;stroke-opacity:1"
     inkscape:export-filename="C:\GitDev\sacnview\res\settings.png"
     inkscape:export-xdpi="90"
     inkscape:export-ydpi="90" /><path
     style="fill:#ffffff;fill-opacity:1"
     inkscape:connector-curvature="0"
     d="m 54.252962,146.10852 c 0,0 -0.74832,-0.28143 -2.91327,-0.48115 -2.64715,-0.24472 -3.4457,-1.23688 -4.32621,-2.47206 l -0.0177,0 c -0.10964,-0.29358 -0.22708,-0.58346 -0.35637,-0.86746 l 0.0102,-0.0102 c -0.25131,-1.49568 -0.38736,-2.76242 1.3115,-4.80735 1.38862,-1.67165 1.71987,-2.40033 1.71987,-2.40033 -0.32586,-0.82697 -1.10936,-1.61031 -1.10936,-1.61031 0,0 -0.78374,-0.78358 -1.61031,-1.10896 0,0 -0.72868,0.33037 -2.40033,1.71955 -2.04493,1.6987 -3.31175,1.56225 -4.80735,1.31149 l -0.0103,0.0101 c -0.28369,-0.1292 -0.57316,-0.24616 -0.86739,-0.35637 l 0,-0.0172 c -1.23526,-0.88018 -2.22734,-1.67962 -2.47214,-4.32676 -0.20004,-2.16391 -0.48106,-2.9132 -0.48106,-2.9132 -0.81538,-0.3546 -1.92305,-0.3546 -1.92305,-0.3546 0,0 -1.10816,0 -1.92289,0.3546 0,0 -0.28159,0.74937 -0.48131,2.9132 -0.2448,2.64714 -1.23744,3.44658 -2.47206,4.32676 l 0,0.0172 c -0.29358,0.11021 -0.58362,0.22709 -0.86746,0.35589 l -0.01,-0.01 c -1.4956,0.25172 -2.76242,0.3876 -4.80735,-1.31093 -1.67149,-1.3887 -2.40113,-1.71971 -2.40113,-1.71971 -0.82698,0.32626 -1.60935,1.10855 -1.60935,1.10855 0,0 -0.78366,0.78431 -1.10904,1.61072 0,0 0.32997,0.72876 1.71963,2.39993 1.69854,2.04485 1.5608,3.31167 1.31085,4.80735 l 0.0103,0.0102 c -0.12937,0.28401 -0.24625,0.57389 -0.35654,0.86747 l -0.0171,0 c -0.87961,1.23566 -1.67913,2.22734 -4.32612,2.47205 -2.16407,0.20013 -2.91424,0.48212 -2.91424,0.48212 -0.35371,0.81554 -0.35371,1.92208 -0.35371,1.92208 0,0 0,1.10856 0.3546,1.92289 0,0 0.7484,0.28199 2.91287,0.48123 2.64706,0.2448 3.44562,1.23808 4.3266,2.47214 l 0.0172,0 c 0.11028,0.29422 0.22709,0.5837 0.35653,0.86746 l -0.0103,0.0102 c 0.2518,1.49584 0.3876,2.76242 -1.31086,4.80735 -1.38877,1.67157 -1.72011,2.40122 -1.72011,2.40122 0.32675,0.82657 1.10888,1.60942 1.10888,1.60942 0,0 0.78423,0.78375 1.61079,1.10856 0,0 0.72829,-0.32956 2.39994,-1.71923 2.04484,-1.69854 3.31215,-1.5608 4.80726,-1.31117 l 0.0103,-0.0103 c 0.28384,0.1292 0.57388,0.24569 0.86747,0.35637 l 0,0.0177 c 1.23558,0.87969 2.22726,1.67913 2.47206,4.32628 0.20004,2.16391 0.48162,2.91408 0.48162,2.91408 0.81587,0.35363 1.92249,0.35363 1.92249,0.35363 0,0 1.10856,0 1.92305,-0.3546 0,0 0.28207,-0.74848 0.48107,-2.91319 0.2448,-2.64715 1.238,-3.44578 2.47214,-4.32628 l 0,-0.0177 c 0.29422,-0.11068 0.5837,-0.22709 0.86738,-0.35637 l 0.0103,0.0103 c 1.4956,-0.25132 2.76234,-0.38737 4.80735,1.31117 1.67173,1.38886 2.40146,1.72019 2.40146,1.72019 0.82649,-0.32682 1.60918,-1.10944 1.60918,-1.10944 0,0 0.7835,-0.78374 1.10937,-1.61031 0,0 -0.33037,-0.72884 -1.71987,-2.40033 -1.69887,-2.04485 -1.56194,-3.31151 -1.3115,-4.80735 l -0.0102,-0.0102 c 0.1292,-0.28376 0.24665,-0.57324 0.35637,-0.86746 l 0.0177,0 c 0.8797,-1.23495 1.67906,-2.22734 4.3262,-2.47214 2.16391,-0.20004 2.91416,-0.48123 2.91416,-0.48123 0.3538,-0.81522 0.3538,-1.92289 0.3538,-1.92289 0,0 -8e-5,-1.10856 -0.35468,-1.92305 z m -20.25326,11.56101 c -5.32303,0 -9.63804,-4.31493 -9.63804,-9.63796 0,-5.32303 4.31501,-9.63797 9.63804,-9.63797 5.32295,0 9.63796,4.31494 9.63796,9.63797 0,5.32303 -4.31501,9.63796 -9.63796,9.63796 z"
     id="path4246"
     inkscape:export-filename="C:\GitDev\sacnview\res\settings.png"
     inkscape:export-xdpi="90"
     inkscape:export-ydpi="90" /><rect
     style="opacity:1;fill:url(#linearGradient4348);fill-opacity:1;stroke:none;stroke-width:20;stroke-linecap:round;stroke-linejoin:round;stroke-miterlimit:4;stroke-dasharray:none;stroke-dashoffset:0;stroke-opacity:1"
     id="rect4257"
     width="48"
     height="48"
     x="71.830505"
     y="124.03136"
     inkscape:export-filename="C:\GitDev\sacnview\res\scope.png"
     inkscape:export-xdpi="90"
     inkscape:export-ydpi="90" /><path
     id="path4300"
     title="sin(x)"
     d="m 81.880419,147.93541 c 0.09398,0 0.187965,-0.68789 0.281948,-0.70277 0.09398,-0.0149 0.187964,-0.67018 0.281946,-0.69993 0.09398,-0.0298 0.187965,-0.64966 0.281948,-0.69429 0.09398,-0.0447 0.187964,-0.62633 0.281946,-0.68584 0.09398,-0.0595 0.187965,-0.60025 0.281947,-0.67464 0.09398,-0.0744 0.187965,-0.57145 0.281948,-0.66071 0.09398,-0.0893 0.187964,-0.54 0.281946,-0.64414 0.09398,-0.10414 0.187965,-0.50593 0.281948,-0.62496 0.09398,-0.11902 0.187964,-0.46936 0.281946,-0.60326 0.09398,-0.13389 0.187965,-0.43037 0.281948,-0.57914 0.09398,-0.14877 0.187964,-0.38904 0.281946,-0.55269 0.09398,-0.16365 0.187965,-0.34549 0.281948,-0.52401 0.09398,-0.17853 0.187964,-0.29981 0.281946,-0.49322 0.09398,-0.1934 0.187965,-0.25216 0.281947,-0.46045 0.09398,-0.20827 0.187965,-0.20265 0.281947,-0.42581 0.09398,-0.22316 0.187965,-0.15143 0.281947,-0.38947 0.09398,-0.23804 0.187965,-0.0986 0.281947,-0.35156 0.09398,-0.25292 0.187965,-0.0444 0.281947,-0.31223 0.09398,-0.26779 0.187965,0.011 0.281947,-0.27165 0.09398,-0.28267 0.187965,0.0675 0.281947,-0.22997 0.09398,-0.29754 0.187965,0.12506 0.281947,-0.18736 0.09398,-0.31242 0.187965,0.1833 0.281947,-0.14401 0.09398,-0.32729 0.187965,0.24213 0.281947,-0.10006 0.09398,-0.34218 0.187965,0.30134 0.281947,-0.0558 0.09398,-0.35706 0.187964,0.36078 0.281947,-0.0112 0.09398,-0.37194 0.187965,0.42027 0.281947,0.0335 0.09398,-0.38681 0.187965,0.47961 0.281947,0.0779 0.09398,-0.40169 0.187965,0.53866 0.281947,0.12209 0.09398,-0.41656 0.187965,0.59721 0.281947,0.16577 0.09398,-0.43144 0.187965,0.65509 0.281947,0.20877 0.09398,-0.44632 0.187965,0.71213 0.281947,0.25094 0.09398,-0.46121 0.187965,0.76815 0.281947,0.29208 0.09398,-0.47608 0.187965,0.82301 0.281947,0.33206 0.09398,-0.49095 0.187964,0.87653 0.281947,0.3707 0.09398,-0.50583 0.187965,0.92856 0.281947,0.40785 0.09398,-0.52071 0.187964,0.97894 0.281947,0.44335 0.09398,-0.53558 0.187965,1.02754 0.281947,0.47708 0.09398,-0.55046 0.187964,1.0742 0.281947,0.50887 0.09398,-0.56534 0.187965,1.11884 0.281947,0.53862 0.09398,-0.58022 0.187964,1.1613 0.281947,0.5662 0.09398,-0.59509 0.187965,1.20147 0.281947,0.5915 0.09398,-0.60997 0.187964,1.23927 0.281947,0.61442 0.09398,-0.62484 0.187964,1.27459 0.281947,0.63487 0.09398,-0.63973 0.187965,1.30735 0.281947,0.65275 0.09398,-0.6546 0.187964,1.33749 0.281947,0.66801 0.09398,-0.66948 0.187965,1.36494 0.281947,0.68058 0.09398,-0.68436 0.187964,1.38965 0.281946,0.69042 0.09398,-0.69924 0.187966,1.41157 0.281948,0.69746 0.09398,-0.71411 0.187964,1.43069 0.281946,0.7017 0.09398,-0.72899 0.187966,1.44698 0.281948,0.70312 0.09398,-0.74387 0.187964,1.46045 0.281946,0.7017 0.09398,-0.75874 0.187965,1.47109 0.281948,0.69746 0.09398,-0.77361 0.187964,1.47891 0.281946,0.69042 0.09398,-0.7885 0.187965,1.48396 0.281948,0.68058 0.09398,-0.80338 0.187964,1.48627 0.281947,0.66801 0.09398,-0.81825 0.187964,1.48588 0.281947,0.65275 0.09398,-0.83313 0.187964,1.48288 0.281947,0.63487 0.09398,-0.84801 0.187964,1.47731 0.281946,0.61442 0.09398,-0.86288 0.187965,1.46926 0.281948,0.5915 0.09398,-0.87776 0.187964,1.45884 0.281946,0.5662 0.09398,-0.89264 0.187966,1.44614 0.281948,0.53862 0.09398,-0.90751 0.187964,1.43126 0.281946,0.50887 0.09398,-0.9224 0.187965,1.41435 0.281948,0.47708 0.09398,-0.93728 0.187964,1.3955 0.281946,0.44335 0.09398,-0.95215 0.187964,1.37487 0.281944,0.40785 0.094,-0.96703 0.18797,1.3526 0.28195,0.3707 0.094,-0.9819 0.18797,1.32885 0.28195,0.33206 0.094,-0.99678 0.18796,1.30374 0.28194,0.29209 0.094,-1.01166 0.18797,1.27747 0.28195,0.25093 0.094,-1.02653 0.18797,1.25019 0.28195,0.20877 0.094,-1.04141 0.18796,1.22206 0.28195,0.16577 0.094,-1.0563 0.18796,1.19326 0.28194,0.12209 0.094,-1.07116 0.18797,1.16398 0.28195,0.0779 0.094,-1.08605 0.18796,1.13437 0.28195,0.0335 0.094,-1.10093 0.18796,1.10464 0.28194,-0.0112 0.094,-1.1158 0.18797,1.07496 0.28195,-0.0557 0.094,-1.13067 0.18797,1.0455 0.28195,-0.10006 0.094,-1.14555 0.18796,1.01643 0.28194,-0.144 0.094,-1.16043 0.18797,0.98795 0.28195,-0.18737 0.094,-1.17531 0.18797,0.96022 0.28195,-0.22996 0.094,-1.19019 0.18796,0.93342 0.28195,-0.27165 0.094,-1.20506 0.18796,0.90771 0.28194,-0.31223 0.094,-1.21994 0.18797,0.88326 0.28195,-0.35156 0.094,-1.23482 0.18796,0.86022 0.28195,-0.38947 0.094,-1.24969 0.18796,0.83876 0.28194,-0.42582 0.094,-1.26457 0.18797,0.81901 0.28195,-0.46044 0.094,-1.27945 0.18796,0.80111 0.28195,-0.49322 0.094,-1.29433 0.18796,0.78519 0.28195,-0.52401 0.094,-1.3092 0.18796,0.77139 0.28194,-0.55269 0.094,-1.32408 0.18796,0.75982 0.28195,-0.57914 0.094,-1.33896 0.18796,0.75057 0.28195,-0.60327 0.094,-1.35384 0.18795,0.74376 0.28194,-0.62495 0.094,-1.36871 0.18796,0.73946 0.28195,-0.64413 0.094,-1.3836 0.18796,0.73775 0.28194,-0.66072 0.094,-1.39847 0.18797,0.73871 0.28195,-0.67464 0.094,-1.41334 0.18797,0.74238 0.28194,-0.68584 0.094,-1.42823 0.18797,0.74881 0.28195,-0.69429 0.094,-1.4431 0.18797,0.75805 0.28195,-0.69993 0.094,-1.45798 0.18797,0.77009 0.28195,-0.70277"
     style="opacity:1;fill:none;fill-opacity:1;stroke:#ffffff;stroke-width:1.89999998;stroke-linecap:round;stroke-linejoin:round;stroke-miterlimit:4;stroke-dasharray:none;stroke-dashoffset:0;stroke-opacity:1"
     inkscape:connector-curvature="0"
     inkscape:export-filename="C:\GitDev\sacnview\res\scope.png"
     inkscape:export-xdpi="90"
     inkscape:export-ydpi="90" /><circle
     style="opacity:1;fill:none;fill-opacity:1;stroke:#ffffff;stroke-width:2.29999995;stroke-linecap:round;stroke-linejoin:round;stroke-miterlimit:4;stroke-dasharray:none;stroke-dashoffset:0;stroke-opacity:1"
     id="path4340"
     cx="95.830505"
     cy="148.03136"
     r="18.983051"
     inkscape:export-filename="C:\GitDev\sacnview\res\scope.png"
     inkscape:export-xdpi="90"
     inkscape:export-ydpi="90" /><rect
     y="124.03136"
     x="124.94741"
     height="48"
     width="48"
     id="rect4350"
     style="opacity:1;fill:url(#linearGradient4352);fill-opacity:1;stroke:none;stroke-width:20;stroke-linecap:round;stroke-linejoin:round;stroke-miterlimit:4;stroke-dasharray:none;stroke-dashoffset:0;stroke-opacity:1"
     inkscape:export-filename="C:\GitDev\sacnview\res\univ_view.png"
     inkscape:export-xdpi="90"
     inkscape:export-ydpi="90" /><circle
     style="opacity:1;fill:none;fill-opacity:1;stroke:#ffffff;stroke-width:1.89999998;stroke-linecap:round;stroke-linejoin:round;stroke-miterlimit:4;stroke-dasharray:none;stroke-dashoffset:0;stroke-opacity:1"
     id="path4354"
     cx="153.07822"
     cy="143.04903"
     r="8.4373417"
     inkscape:export-filename="C:\GitDev\sacnview\res\univ_view.png"
     inkscape:export-xdpi="90"
     inkscape:export-ydpi="90" /><path
     style="fill:none;fill-rule:evenodd;stroke:#ffffff;stroke-width:2.4000001;stroke-linecap:butt;stroke-linejoin:miter;stroke-miterlimit:4;stroke-dasharray:none;stroke-opacity:1"
     d="m 148.09251,149.9523 -12.08074,12.08074"
     id="path4356"
     inkscape:connector-curvature="0"
     inkscape:export-filename="C:\GitDev\sacnview\res\univ_view.png"
     inkscape:export-xdpi="90"
     inkscape:export-ydpi="90" /><path
     style="fill:#ffffff;fill-opacity:1"
     inkscape:connector-curvature="0"
     d="m 152.23058,21.901836 0,-7.093692 -8.86712,8.867115 8.86712,8.867114 0,-7.093691 c 5.87004,0 10.64054,4.770507 10.64054,10.640538 0,5.870029 -4.7705,10.640538 -10.64054,10.640538 -5.87003,0 -10.64054,-4.770509 -10.64054,-10.640538 l -3.54685,0 c 0,7.838529 6.34886,14.187383 14.18739,14.187383 7.83853,0 14.18738,-6.348854 14.18738,-14.187383 0,-7.83853 -6.34885,-14.187384 -14.18738,-14.187384 z"
     id="path4181"
     inkscape:export-xdpi="90"
     inkscape:export-ydpi="90" /><rect
     rx="3"
     ry="3"
     y="75.427711"
     x="142.59946"
     height="9"
     width="18"
     id="rect4207-8"
     style="fill:none;fill-opacity:1;stroke:#ffffff;stroke-width:1.9;stroke-linecap:round;stroke-linejoin:round;stroke-miterlimit:4;stroke-dasharray:none;stroke-dashoffset:0;stroke-opacity:1"
     inkscape:export-filename="C:\GitDev\sacnview\res\multi_universe.png"
     inkscape:export-xdpi="96"
     inkscape:export-ydpi="96" /><rect
     rx="3"
     style="fill:none;fill-opacity:1;stroke:#ffffff;stroke-width:1.9;stroke-linecap:round;stroke-linejoin:round;stroke-miterlimit:4;stroke-dasharray:none;stroke-dashoffset:0;stroke-opacity:1"
     id="rect4224-6"
     width="18"
     height="9"
     x="130.93843"
     y="92.919243"
     ry="3"
     inkscape:export-filename="C:\GitDev\sacnview\res\multi_universe.png"
     inkscape:export-xdpi="96"
     inkscape:export-ydpi="96" /><rect
     rx="3"
     ry="3"
     y="92.919243"
     x="154.05708"
     height="9"
     width="18"
     id="rect4226-5"
     style="fill:none;fill-opacity:1;stroke:#ffffff;stroke-width:1.9;stroke-linecap:round;stroke-linejoin:round;stroke-miterlimit:4;stroke-dasharray:none;stroke-dashoffset:0;stroke-opacity:1"
     inkscape:export-filename="C:\GitDev\sacnview\res\multi_universe.png"
     inkscape:export-xdpi="96"
     inkscape:export-ydpi="96" /><path
     inkscape:connector-curvature="0"
     id="path4228-7"
     d="m 139.59945,92.702413 v -4 h 24 v 4.27119"
     style="fill:none;fill-rule:evenodd;stroke:#ffffff;stroke-width:1.6;stroke-linecap:butt;stroke-linejoin:miter;stroke-miterlimit:4;stroke-dasharray:none;stroke-opacity:1"
     inkscape:export-filename="C:\GitDev\sacnview\res\multi_universe.png"
     inkscape:export-xdpi="96"
     inkscape:export-ydpi="96" /><path
     inkscape:connector-curvature="0"
     id="path4230-6"
     d="m 151.59945,84.566823 v 4.13559"
     style="fill:none;fill-rule:evenodd;stroke:#ffffff;stroke-width:1.6;stroke-linecap:butt;stroke-linejoin:miter;stroke-miterlimit:4;stroke-dasharray:none;stroke-opacity:1"
     inkscape:export-filename="C:\GitDev\sacnview\res\multi_universe.png"
     inkscape:export-xdpi="96"
     inkscape:export-ydpi="96" /></svg>
