<?xml version="1.0" encoding="UTF-8" standalone="no"?>
<svg
   height="40px"
   viewBox="0 -960 960 960"
   width="40px"
   fill="#1f1f1f"
   version="1.1"
   id="svg1"
   sodipodi:docname="pref_recieve.svg"
   inkscape:version="1.3 (0e150ed6c4, 2023-07-21)"
   xmlns:inkscape="http://www.inkscape.org/namespaces/inkscape"
   xmlns:sodipodi="http://sodipodi.sourceforge.net/DTD/sodipodi-0.dtd"
   xmlns="http://www.w3.org/2000/svg"
   xmlns:svg="http://www.w3.org/2000/svg">
  <defs
     id="defs1" />
  <sodipodi:namedview
     id="namedview1"
     pagecolor="#ffffff"
     bordercolor="#000000"
     borderopacity="0.25"
     inkscape:showpageshadow="2"
     inkscape:pageopacity="0.0"
     inkscape:pagecheckerboard="0"
     inkscape:deskcolor="#d1d1d1"
     inkscape:zoom="29.325"
     inkscape:cx="19.98295"
     inkscape:cy="20"
     inkscape:window-width="2560"
     inkscape:window-height="1369"
     inkscape:window-x="2552"
     inkscape:window-y="-8"
     inkscape:window-maximized="1"
     inkscape:current-layer="svg1" />
  <path
     d="M480-79.33 289.33-270 336-316.67 446.67-207v-426.33h66.66V-207L624-316.67 670.67-270 480-79.33ZM146-260q-32-49-49-105T80-480q0-83 31.5-156T197-763q54-54 127-85.5T480-880q83 0 156 31.5T763-763q54 54 85.5 127T880-480q0 59-17 115t-49 105l-48.67-47.33q24-39.67 36-83 12-43.34 12-89.67 0-139.33-97-236.33t-236.33-97q-139.33 0-236.33 97t-97 236.33q0 46.33 12 90t36 82.67L146-260Z"
     id="path1"
     style="fill:#02b21f;fill-opacity:1" />
</svg>
